<?xml version="1.0" encoding="UTF-8"?>
<svg version="1.1" viewBox="0 0 1600 880" width="180" height="50" xmlns="http://www.w3.org/2000/svg">
<path transform="translate(0)" d="m0 0h1600v880h-1600v-880z" fill="#fff"/>
<path transform="translate(805 -.129)" d="m0 0c1.85-0.00473 1.85-0.00473 3.74-0.00955 1.34 0.00179 2.67 0.00384 4.01 0.00613 1.38-6.74e-4 2.76-0.00164 4.13-0.0029 2.88-0.00147 5.76 6.59e-4 8.64 0.00534 3.7 0.00571 7.39 0.0024 11.1-0.00357 2.84-0.00361 5.68-0.00247 8.53 1.28e-4 1.36 6.68e-4 2.73-1.54e-4 4.09-0.00248 1.9-0.00253 3.8 0.00201 5.7 0.0069 1.08 7.96e-4 2.16 0.00159 3.28 0.00241 2.56 0.127 2.56 0.127 4.56 1.13 1.68 0.212 3.37 0.419 5.05 0.595 11.6 1.21 22.8 3.69 33.8 7.69 1.94 0.632 3.93 1.14 5.91 1.62 9.77 2.4 19.6 5.88 28.4 10.6 2.37 1.22 4.75 2.36 7.17 3.46 10.1 4.63 19.5 9.67 28.7 16 1.33 0.911 1.33 0.911 2.7 1.84 2.45 1.7 4.88 3.42 7.3 5.16 0.893 0.625 1.79 1.25 2.71 1.89 5.65 4.01 10.9 8.27 16 13 2.01 1.85 4.05 3.62 6.13 5.39 21.7 19.1 21.7 19.1 23.7 30.6 0.337 7.07-1.7 11.9-6.29 17.2-2.22 2.35-4.48 4.65-6.76 6.93-0.828 0.836-1.66 1.67-2.51 2.53-1.74 1.76-3.49 3.51-5.24 5.25-2.69 2.69-5.35 5.39-8.02 8.1-1.7 1.7-3.4 3.41-5.1 5.11-0.798 0.814-1.6 1.63-2.42 2.47-0.748 0.738-1.5 1.48-2.27 2.24-0.654 0.656-1.31 1.31-1.98 1.99-1.9 1.28-1.9 1.28-4 1.07-2.33-0.97-4.02-2.11-5.89-3.79-0.33-0.99-0.66-1.98-1-3-1.14-1.17-2.29-2.34-3.47-3.47-2.44-2.43-4.64-5.05-6.88-7.66-1.61-1.88-1.61-1.88-3.36-3.48-1.29-1.38-1.29-1.38-1.29-3.38h-2v-2c-0.557-0.227-1.11-0.454-1.69-0.688-2.96-1.68-4.92-3.9-7.31-6.31-8.1-7.36-16.4-13.7-26-19-0.66-0.369-1.32-0.737-2-1.12-42.6-23.6-89.2-31.6-137-20.9-1.86 0.398-1.86 0.398-3.76 0.805-21 4.79-41.5 14-59.2 26.2-0.554 0.379-1.11 0.758-1.68 1.15-6.94 4.77-13.5 9.64-19.6 15.5-1.67 1.4-1.67 1.4-3.67 1.4-0.33 0.99-0.66 1.98-1 3-1.53 1.44-1.53 1.44-3.5 3-5.22 4.45-9.32 9.58-13.5 15-0.437 0.563-0.875 1.13-1.33 1.7-7.19 9.29-13.2 18.9-18.7 29.3-0.616 1.14-1.23 2.28-1.87 3.45-11.2 21.5-19.5 47.2-19.1 71.5-0.33 0.66-0.66 1.32-1 2-0.101 2.72-0.142 5.41-0.125 8.12 0.00411 0.808 0.00822 1.62 0.0125 2.45 0.464 51 20 98.3 55.9 135 0.598 0.603 1.2 1.21 1.81 1.83 3.72 3.66 7.6 6.8 11.9 9.78 0.494 0.418 0.988 0.836 1.5 1.27v2c0.728 0.258 1.46 0.516 2.21 0.781 2.91 1.27 4.99 2.76 7.48 4.72 40.3 29.7 91.6 38.5 140 31.5 14.7-2.34 28.2-6.19 41.9-12 8.78-3.4 16-3.83 24.8-0.25 3.8 1.84 6.35 4.1 9.19 7.25 0.846 0.66 1.69 1.32 2.56 2 2.44 2 2.44 2 4.25 4.31 2.46 3.02 5.2 5.38 8.15 7.91 2.84 2.47 5.47 5.02 8.04 7.77v2h2c1.62 1.61 1.62 1.61 3.44 3.75 0.597 0.696 1.19 1.39 1.81 2.11 0.579 0.706 1.16 1.41 1.75 2.14 0.568 0.686 1.14 1.37 1.72 2.08 1.28 1.92 1.28 1.92 1.28 4.92-1.57 1.32-1.57 1.32-3.78 2.64-0.815 0.491-1.63 0.982-2.47 1.49-0.888 0.516-1.78 1.03-2.69 1.56-0.906 0.534-1.81 1.07-2.74 1.62-7.61 4.42-15.4 8.32-23.4 11.9-1.73 0.767-3.44 1.57-5.15 2.38-16.3 7.48-34.1 12.5-51.7 15.5-0.676 0.15-1.35 0.299-2.05 0.453-8.04 1.76-16.1 2.52-24.3 3.23-0.761 0.0673-1.52 0.135-2.3 0.204-15.6 1.35-31.9 2.18-47.5-0.422-2.8-0.556-2.8-0.556-5.58-0.407-3.64-0.07-6.89-0.738-10.4-1.5-2.95-0.586-5.89-0.98-8.88-1.37-8.23-1.25-16-3.66-23.9-6.19-0.837-0.265-1.67-0.529-2.54-0.802-24.9-7.92-48-18.1-69.5-33.2-1.04-0.694-2.08-1.39-3.15-2.1-7.51-5.05-14.4-10.5-21.2-16.5-1.16-1.02-2.33-2.03-3.51-3.04-11.7-10.1-22.7-21.1-32.1-33.4-0.836-1.06-1.67-2.12-2.51-3.17-9.11-11.5-16.5-23.9-23.5-36.8-0.897-1.65-0.897-1.65-1.81-3.33-24.5-46.9-33.3-101-26.2-154 0.156-1.29 0.312-2.57 0.473-3.89 0.972-7.54 2.54-14.8 4.53-22.1 0.299-1.16 0.598-2.32 0.906-3.52 3.77-14.5 8.15-28.7 14.1-42.5 0.271-0.64 0.542-1.28 0.822-1.94 7.45-17.4 17.4-34.3 29.2-49.1 0.701-0.889 0.701-0.889 1.42-1.8 12-15.2 24.7-29.8 39.6-42.2 0.713-0.602 1.43-1.2 2.16-1.82 29.2-24 65.1-42.2 102-51.2 0.693-0.173 1.39-0.345 2.1-0.523 8.35-2.08 16.6-3.9 25.2-5.08 2.67-0.349 2.67-0.349 5.02-0.911 3.03-0.539 5.86-0.611 8.95-0.613z" fill="#005D6D"/>
<path transform="translate(945 136)" d="m0 0c1.36 1.3 2.72 2.61 4.08 3.92 0.753 0.69 1.51 1.38 2.28 2.09 5.1 4.81 9.46 10.1 13.8 15.7 0.585 0.734 1.17 1.47 1.77 2.22 0.54 0.705 1.08 1.41 1.64 2.14 0.487 0.629 0.975 1.26 1.48 1.91 1.35 2.55 1.33 4.12 1.05 6.99-1.23 1.84-1.23 1.84-2.97 3.57-0.648 0.654-1.3 1.31-1.96 1.98-1.06 1.03-1.06 1.03-2.15 2.09-0.723 0.721-1.45 1.44-2.19 2.18-1.53 1.52-3.07 3.04-4.61 4.55-2.36 2.31-4.7 4.64-7.04 6.97-1.49 1.48-2.98 2.95-4.47 4.42-1.05 1.04-1.05 1.04-2.12 2.11-0.991 0.967-0.991 0.967-2 1.95-0.866 0.85-0.866 0.85-1.75 1.72-4.92 4.14-9.88 4.06-16.1 3.96-8.33-1.16-13.6-7.12-18.8-13.3-16.5-19.5-40.6-30.6-65.8-33.2-15.3-1.01-29.5 0.923-44 6-0.964 0.336-1.93 0.673-2.92 1.02-22.5 8.59-40.6 25-52.1 46-0.504 0.902-1.01 1.8-1.53 2.73-12.3 23.2-15.3 51.1-7.85 76.4 4.44 13.8 11 25.9 20.4 36.9 1.14 1.52 1.14 1.52 2.31 3.06 16 17.5 41 30.9 64.9 32.1 32.3 0.397 58.8-4.55 83.3-27.5 3.25-3.21 6.38-6.4 9.18-10 4.57-5.17 9.41-7.33 16.2-7.78 7.23 0.296 12.3 5.25 17.2 10.1 1.5 1.7 2.95 3.43 4.39 5.18 1.54 1.73 3.1 3.15 4.88 4.63 6.81 5.89 13.1 12.4 19.5 18.7 0.701 0.697 1.4 1.39 2.12 2.11 3.71 3.69 7.41 7.38 11.1 11.1 3.8 3.79 7.61 7.57 11.4 11.3 2.95 2.93 5.9 5.86 8.84 8.8 1.4 1.4 2.8 2.79 4.21 4.18 19.6 19.4 19.6 19.4 20.2 29.8-0.403 12.1-12.4 21.4-20.6 29.2-1.97 1.78-3.97 3.54-5.99 5.26-1.39 1.2-2.75 2.44-4.08 3.7-2.87 2.68-5.34 4.77-8.93 6.42-7.73-0.967-14.7-11-19.9-16.4-1.7-1.73-3.39-3.46-5.09-5.18-2.64-2.69-5.27-5.38-7.89-8.08-2.55-2.63-5.13-5.25-7.71-7.86-1.15-1.2-1.15-1.2-2.32-2.42-8.72-8.77-18.6-13.8-31-13.8-6.31 0.143-11.3 2.01-17 4.53-43.9 18.2-92.8 19-137 1.09-18.1-7.7-33.9-18.9-48.6-31.9-1.27-1.11-2.56-2.2-3.85-3.29-31.3-26.3-48.2-68.2-52.7-108-2.51-40 6.99-80.4 31-113 1.14-1.56 1.14-1.56 2.3-3.16 22.8-30.8 54-52.7 90.7-63.8 0.8-0.246 1.6-0.492 2.42-0.746 55.3-16.6 119-0.46 160 38.8z" fill="#37B549"/>
<path transform="translate(941 660)" d="m0 0c14.6 13 21.4 31.5 23 50.6 0.382 6.76 0.395 13.5 0.395 20.3 0.00218 2.52 0.0204 5.04 0.0393 7.56 0.0808 23-1.66 46.2-18.2 63.9h-2c-0.33 0.99-0.66 1.98-1 3-2.15 1.46-4.23 2.75-6.5 4-0.952 0.533-0.952 0.533-1.92 1.08-9.51 5.2-18.3 7.05-29.2 7.06-1.07 0.00144-1.07 0.00144-2.16 0.0029-1.5 6.77e-4 -3-0.00114-4.5-0.00534-2.25-0.0053-4.49-6.66e-5 -6.74 0.00635-8.19 0.00248-16.3-0.274-24.4-1.02-0.841-0.0385-1.68-0.077-2.55-0.117-1.71 1.71-1.17 3.92-1.21 6.25-0.0199 1.12-0.0399 2.24-0.0604 3.4-0.0251 1.83-0.0251 1.83-0.0506 3.7-0.0208 1.24-0.0416 2.48-0.063 3.76-0.0545 3.31-0.105 6.61-0.153 9.92-0.0502 3.37-0.106 6.74-0.161 10.1-0.107 6.62-0.209 13.2-0.307 19.9-3.75 1.87-8.25 1.23-12.4 1.25-1.44 0.0309-1.44 0.0309-2.91 0.0625-0.926 0.00516-1.85 0.0103-2.8 0.0156-0.846 0.00935-1.69 0.0187-2.56 0.0283-3.08-0.468-4.19-1.07-6.35-3.36-0.403-2.9-0.544-5.43-0.515-8.34-0.00695-0.861-0.0139-1.72-0.021-2.61-0.0184-2.9-0.00798-5.79 0.00226-8.68-0.00705-2.07-0.0158-4.14-0.0261-6.21-0.0226-5.63-0.0195-11.3-0.0107-16.9 0.0051-4.7-0.00217-9.4-0.00947-14.1-0.017-11.1-0.0134-22.2 0.00329-33.3 0.0169-11.4 0.00109-22.9-0.0312-34.3-0.0267-9.82-0.034-19.6-0.0255-29.5 0.00494-5.87 0.00268-11.7-0.0178-17.6-0.0183-5.52-0.0124-11 0.0122-16.6 0.00502-2.03 0.00149-4.05-0.0111-6.08-0.0159-2.76-0.00103-5.53 0.0217-8.29-0.0118-0.804-0.0237-1.61-0.0359-2.44 0.0679-4.06 0.468-5.91 3.05-9.11 4.47-3.49 8.7-4.37 14.2-5.29 1.92-0.322 1.92-0.322 3.89-0.65 0.999-0.162 0.999-0.162 2.02-0.328 2-0.326 3.99-0.662 5.99-1 24.6-4.06 55.6-7.2 76.3 9.92z" fill="#37B549"/>
<path transform="translate(196 589)" d="m0 0c0.712 4.58e-4 1.42 9.16e-4 2.16 0.00139 1.49 3e-3 2.98 0.0108 4.47 0.0233 2.28 0.0184 4.55 0.0205 6.83 0.0203 12.9 0.0435 12.9 0.0435 15.7 1.19 4.44 6.65 3.17 16.9 3.32 24.7 0.0208 0.961 0.0416 1.92 0.063 2.91 0.0646 3.03 0.124 6.05 0.183 9.08 0.0433 2.07 0.0869 4.14 0.131 6.21 0.106 5.03 0.208 10.1 0.307 15.1 2.07-0.14 4.13-0.286 6.2-0.434 1.15-0.0805 2.3-0.161 3.49-0.244 2.81-0.273 5.39-0.708 8.13-1.39 18.5-3.98 39.6 0.041 55.8 9.5 12.4 8.66 20.1 21.8 23 36.5 1.88 12.5 1.7 25 1.68 37.6 0.00135 2.46 0.00329 4.91 0.0058 7.37 0.00293 5.12-0.00129 10.2-0.0107 15.3-0.0115 6.56-0.00479 13.1 0.00714 19.7 0.00722 5.06 0.00493 10.1-2.56e-4 15.2-0.00133 2.42 2.99e-4 4.84 0.00496 7.26 0.00507 3.37-0.00265 6.74-0.0138 10.1 0.00405 0.996 0.0081 1.99 0.0123 3.02-0.0546 8.89-0.0546 8.89-2.27 12.5-3.76 1.25-7.29 1.16-11.2 1.17-0.805 0.00333-1.61 0.00666-2.44 0.0101-1.7 0.00506-3.41 0.00741-5.11 0.00725-2.6 0.00218-5.2 0.0203-7.79 0.0393-1.66 0.00293-3.31 0.00492-4.97 0.00586-1.16 0.0108-1.16 0.0108-2.35 0.0218-5.35-0.0225-9.27-0.389-13.1-4.25-0.256-1.98-0.256-1.98-0.265-4.46-0.00827-0.939-0.0165-1.88-0.0251-2.85 9.82e-4 -1.03 0.00196-2.07 0.00298-3.13-0.00683-1.09-0.0137-2.17-0.0207-3.29-0.0136-2.37-0.0227-4.73-0.0277-7.1-0.00827-3.75-0.0288-7.5-0.0525-11.2-0.0483-7.97-0.0812-15.9-0.112-23.9-0.0356-9.21-0.0778-18.4-0.136-27.6-0.02-3.69-0.0284-7.37-0.0363-11.1-0.013-2.28-0.0265-4.56-0.0406-6.83 9.82e-4 -1.02 0.00196-2.04 0.00298-3.08-0.0546-6.35-0.811-12.2-2.29-18.4h-2c-1.67-1.67-3.33-3.33-5-5-3.01-1.84-5.41-2.29-8.91-2.45-1.39-0.0648-1.39-0.0648-2.8-0.131-0.959-0.0354-1.92-0.0709-2.91-0.107-0.967-0.0471-1.93-0.0941-2.93-0.143-4.88-0.427-4.88-0.427-9.45 0.83h-7c-2 0.31-4 0.639-6 1 9.22e-4 0.627 0.00184 1.25 0.00279 1.9 0.0221 15.3 0.0386 30.5 0.049 45.8 0.00515 7.38 0.0122 14.8 0.0236 22.1 0.00999 6.44 0.0164 12.9 0.0186 19.3 0.0013 3.41 0.00434 6.81 0.0116 10.2 0.00727 3.81 0.00826 7.62 0.0078 11.4 0.0036 1.12 0.00719 2.24 0.0109 3.4-0.00749 5.7-0.266 11.2-1.12 16.8-4.37 2.16-8.41 2.29-13.2 2.27-0.78 0.00191-1.56 0.00383-2.36 0.0058-1.64 0.00136-3.29-0.0023-4.93-0.0107-2.51-0.0107-5.02-8.74e-5 -7.52 0.0127-1.6-0.00132-3.2-0.00388-4.8-0.00781-0.746 0.00405-1.49 0.0081-2.26 0.0123-5.26-0.0471-9.13-0.481-12.9-4.28-1.07-5.32-1.14-10.5-1.13-15.9-0.00227-0.876-0.00453-1.75-0.00687-2.66-0.00631-2.92-0.00551-5.85-0.00469-8.77-0.00299-2.1-0.0064-4.2-0.0102-6.3-0.00882-5.7-0.0112-11.4-0.0118-17.1-9.5e-4 -4.76-0.00463-9.51-0.00817-14.3-0.00814-11.2-0.0106-22.4-0.00987-33.7 6.02e-4 -11.6-0.00997-23.2-0.0257-34.7-0.0131-9.94-0.0184-19.9-0.0178-29.8 2.55e-4 -5.94-0.00261-11.9-0.0132-17.8-0.00966-5.58-0.00977-11.2-0.00248-16.7 0.00105-2.05-0.00133-4.1-0.00736-6.15-0.00769-2.79-0.00309-5.59 0.00463-8.38-0.00514-0.813-0.0103-1.63-0.0156-2.46 0.0253-4.13 0.123-7.61 2.26-11.2 5.35-1.91 10.2-2.25 15.9-2.23z" fill="#005D6D"/>
<path transform="translate(675 589)" d="m0 0c0.85-0.00666 1.7-0.0133 2.58-0.0202 1.8-0.0101 3.59-0.0148 5.39-0.0145 2.75-0.00438 5.49-0.0407 8.24-0.0786 1.75-0.00587 3.49-0.00984 5.24-0.0117 0.82-0.0144 1.64-0.0287 2.48-0.0435 0.768 0.00615 1.54 0.0123 2.33 0.0186 1.01-0.00428 1.01-0.00428 2.04-0.00864 2.87 0.735 4.05 2.24 5.93 4.49 0.505 2.39 0.505 2.39 0.512 5.1 0.0125 1.03 0.0249 2.06 0.0378 3.12-0.0066 1.12-0.0132 2.25-0.02 3.4 0.00873 1.19 0.0175 2.37 0.0265 3.6 0.0202 3.25 0.0229 6.5 0.0181 9.76-5.93e-4 3.4 0.0221 6.8 0.0426 10.2 0.0354 6.44 0.0514 12.9 0.0598 19.3 0.013 9.46 0.0512 18.9 0.0941 28.4 0.00314 0.693 0.00628 1.39 0.00951 2.1 0.00628 1.38 0.0126 2.76 0.019 4.15 0.021 4.71 0.0307 9.42 0.0373 14.1 0.00701 2.45 0.0141 4.91 0.0213 7.36-5.29e-4 1.13-0.00106 2.25-0.0016 3.42 0.00401 1.02 0.00802 2.05 0.0121 3.1 0.00126 0.893 0.00251 1.79 0.00381 2.7-0.0102 2.19-0.0102 2.19 1.13 4.14 3.21-2.83 5.37-6.39 7.69-9.94 0.9-1.36 1.8-2.73 2.7-4.09 0.444-0.675 0.888-1.35 1.35-2.05 1.74-2.65 3.51-5.29 5.27-7.93 0.638-0.958 1.28-1.92 1.93-2.9 1.51-2.26 3.02-4.53 4.54-6.79 0.864-1.29 1.73-2.58 2.59-3.87 0.64-0.957 0.64-0.957 1.29-1.93 2.48-3.72 4.9-7.47 7.27-11.3 1.12-1.75 2.25-3.5 3.38-5.25 0.636-0.995 1.27-1.99 1.93-3.02 0.664-0.985 1.33-1.97 2.01-2.98 0.587-0.887 1.17-1.77 1.78-2.69 4.67-4.73 10.6-5.65 17-5.7 0.796 0.00921 1.59 0.0184 2.41 0.0279 0.842-4.99e-4 1.68-9.97e-4 2.55-0.00151 1.77 0.00233 3.53 0.012 5.3 0.0286 2.7 0.0237 5.4 0.0205 8.1 0.0139 1.72 0.00557 3.45 0.0127 5.17 0.0215 0.802-9.11e-4 1.6-0.00182 2.43-0.00276 4.16 0.0526 7.57 0.231 11.3 2.3 1.06 2.25 1.06 2.25 1 5-1.23 2.21-2.48 4.01-4 6-1.04 1.52-2.09 3.04-3.12 4.56-3.13 4.46-6.43 8.77-9.77 13.1-4.12 5.33-8.06 10.8-12 16.3-4.12 5.73-8.29 11.4-12.5 17.1-1.17 1.58-2.33 3.17-3.5 4.75-1.85 2.52-3.72 5.03-5.6 7.52-0.648 0.878-1.3 1.76-1.96 2.66-0.535 0.71-1.07 1.42-1.62 2.15-1.09 1.83-1.09 1.83-0.879 3.74 1.4 3.25 3.37 6.08 5.38 8.98 0.812 1.19 1.62 2.39 2.43 3.58 0.471 0.691 0.942 1.38 1.43 2.09 8.35 12.3 16.5 24.8 24.7 37.2 0.975 1.49 1.95 2.97 2.93 4.46 0.959 1.46 1.92 2.93 2.87 4.39 2.34 3.58 4.72 7.13 7.18 10.6 0.467 0.674 0.934 1.35 1.41 2.04 0.878 1.26 1.77 2.52 2.67 3.77 2.62 3.79 3.55 6.37 2.97 11-1.59 1.59-3.24 1.14-5.44 1.15-0.945 0.00638-1.89 0.0128-2.86 0.0193-1.03 0.00111-2.06 0.00223-3.12 0.00337-1.58 0.00499-1.58 0.00499-3.19 0.0101-2.23 0.00508-4.47 0.00741-6.7 0.00725-3.41 0.00218-6.83 0.0203-10.2 0.0393-2.17 0.00294-4.33 0.00492-6.5 0.00586-1.02 0.00719-2.04 0.0144-3.09 0.0218-1.44-0.00461-1.44-0.00461-2.9-0.00932-1.26 0.00214-1.26 0.00214-2.54 0.00432-4.38-0.449-7.56-1.88-10.4-5.27-3.44-4.25-6.18-8.88-8.93-13.6-1.06-1.79-2.11-3.58-3.17-5.36-0.507-0.862-1.01-1.72-1.54-2.61-1.83-3.1-3.71-6.16-5.61-9.21-2.87-4.64-5.7-9.31-8.5-14-6.09-12.1-6.09-12.1-15.3-21.2 0.0693 1.09 0.139 2.18 0.21 3.3 0.741 12.3 1.01 24.6 1.03 37 0.00992 3.19 0.0412 6.38 0.0723 9.57 0.00651 2.04 0.0118 4.08 0.0156 6.13 0.0123 0.948 0.0247 1.9 0.0374 2.87-3e-3 0.879-6e-3 1.76-0.00909 2.66 0.00547 1.15 0.00547 1.15 0.011 2.33-0.467 2.72-1.55 4.1-3.37 6.14-3.73 1.63-8.08 1.18-12.1 1.2-0.782 0.0057-1.56 0.0114-2.37 0.0173-1.65 0.00943-3.3 0.016-4.95 0.0198-2.52 0.00972-5.03 0.0408-7.55 0.0723-1.61 0.00653-3.21 0.0118-4.82 0.0156-0.749 0.0123-1.5 0.0247-2.27 0.0374-4.51-0.0191-7.39-0.553-11-3.37-2.6-3.9-2.28-7.16-2.25-11.7-0.00312-0.898-0.00624-1.8-0.00945-2.72-8e-3 -3.02-0.00165-6.04 0.00463-9.06-0.00271-2.16-0.00627-4.32-0.0106-6.48-0.00914-5.88-0.00557-11.8 7.58e-4 -17.6 0.00505-6.15 3.71e-4 -12.3-0.00277-18.4-0.00364-10.3 0.00117-20.6 0.0107-31 0.0109-11.9 0.00736-23.9-0.00365-35.8-0.00907-10.2-0.0104-20.5-0.00512-30.7 0.00312-6.12 0.00352-12.2-0.00307-18.4-0.00577-5.76-0.00179-11.5 0.00979-17.3 0.00265-2.12 0.00188-4.23-0.00253-6.35-0.00544-2.88 0.00137-5.76 0.0114-8.65-0.00446-0.842-0.00892-1.68-0.0135-2.55 0.0482-7.13 0.0482-7.13 2.27-10.3 3.68-2.87 8.33-2.32 12.8-2.34z" fill="#005D6D"/>
<path transform="translate(474 659)" d="m0 0c2.56 2.24 5.02 4.55 7.44 6.93 0.556 0.543 1.11 1.09 1.68 1.64 8.41 9 13.3 20.6 16.3 32.4 0.336 1.19 0.673 2.39 1.02 3.62 1.13 4.55 1.36 8.95 1.47 13.6 0.0241 0.85 0.0482 1.7 0.0731 2.57 0.048 1.78 0.0914 3.56 0.131 5.34 0.0623 2.73 0.145 5.46 0.23 8.2 0.0442 1.73 0.0872 3.47 0.129 5.2 0.0389 1.23 0.0389 1.23 0.0786 2.48 0.0361 1.99-0.0352 3.98-0.125 5.97-5.4 5.4-17 4-24.3 4-4.91-0.0699-9.82-0.239-14.7-0.411-15.4-0.527-30.7-0.653-46-0.216-0.808 0.0215-1.62 0.043-2.45 0.0652-7.84-0.525-7.84-0.525-14.5 1.56 0.0596 7.65 1.3 14.9 6.38 20.8 1.3 1.11 1.3 1.11 2.62 2.25 0.804 0.722 1.61 1.44 2.44 2.19 5.72 4.05 11.3 4.1 18.1 4.04 0.921-2.32e-4 1.84-4.63e-4 2.79-7.02e-4 2.98-0.00404 5.96-0.023 8.94-0.0423 2.04-0.00483 4.08-0.00914 6.13-0.0129 12.1-0.0413 24.3-0.235 36.4-1.08 0.933-0.055 1.87-0.11 2.83-0.167 0.787-0.0576 1.57-0.115 2.39-0.175 2.61 0.322 3.41 1.22 5.01 3.25 3.42 8.81 0.953 21.9 0 31-5.65 2.71-11.1 3.98-17.2 5.06-0.932 0.169-1.86 0.338-2.82 0.513-1.83 0.332-3.66 0.66-5.49 0.986-2.92 0.527-5.83 1.11-8.75 1.69-4.3 0.786-8.33 0.828-12.7 0.75-0.99 0.33-1.98 0.66-3 1-25.4 0.828-50.5-1.03-70.5-18.5-1.52-1.48-3.02-2.98-4.5-4.5-0.645-0.636-1.29-1.27-1.95-1.93-10-10.5-15-25.7-15.9-40.1-0.117-2.2-0.117-2.2-1.18-4.99-0.0959-2.29-0.131-4.58-0.133-6.87-9.57e-4 -0.678-0.00191-1.36-0.0029-2.05-6.81e-4 -1.44 0.00116-2.88 0.00534-4.31 0.00528-2.16 9e-5 -4.32-0.00635-6.48-0.0155-25.3 3.78-48.7 21.6-67.9 0.846-0.784 1.69-1.57 2.56-2.38 0.465-0.459 0.931-0.918 1.41-1.39 24.5-22.9 72.1-24.6 98.1-3.54z" fill="#005D6D"/>
<path transform="translate(1440,654)" d="m0 0c0.828 0.409 1.66 0.817 2.51 1.24 13.8 7.49 23.3 22 27.9 36.8 3.6 12.8 4.04 26.2 3.95 39.4-0.0161 2.69-1.02e-6 5.37 0.019 8.06 0.0281 23.7-4.11 45.3-20.8 63.1-17.2 15.3-38.7 15.5-60.7 14.4-9.65-1.05-18.2-4.24-26-10-0.864-0.621-1.73-1.24-2.62-1.88-5.45-4.13-9.69-8.37-13.4-14.1-0.681-1.05-1.36-2.1-2.06-3.19-9.41-17.5-10.2-35.5-10.3-54.9-0.0119-1.21-0.0119-1.21-0.0241-2.44-0.182-24 4.22-48.2 21.2-66.3 20.6-19.2 55.4-22.7 80.2-10.1z" fill="#37B549"/>
<path transform="translate(108 594)" d="m0 0c0.703-0.00295 1.41-0.0059 2.13-0.00894 31.9-0.0304 31.9-0.0304 43.8 7.32 3.1 4.65 2.55 9.52 2.75 15 0.0554 1.09 0.111 2.17 0.168 3.29 0.28 7.11-0.0838 13.8-1.92 20.7-1 1-1 1-4.03 1.13-1.29-0.00258-2.58-0.00516-3.91-0.00781-1.9 0.00387-1.9 0.00387-3.84 0.00781-2.93-0.0504-5.79-0.283-8.7-0.617-6.56-0.696-13.1-0.811-19.7-0.866-1.45-0.0166-2.9-0.0439-4.35-0.082-9.62-0.25-17.9 0.41-26.5 5.43-1.01 0.991-2.01 1.99-3 3h-2c-0.669 1.33-1.34 2.67-2 4-0.712 1.43-0.712 1.43-1.44 2.88-0.773 1.6-0.773 1.6-1.56 3.24-0.516 1.05-1.03 2.11-1.56 3.2-3.64 9.33-3.75 18.7-3.74 28.6-0.0039 1.43-0.00824 2.86-0.013 4.29-0.00742 2.98-0.0072 5.97-0.00191 8.95 0.00577 3.78-0.0111 7.56-0.0343 11.3-0.0149 2.95-0.0156 5.9-0.0125 8.85-5.05e-4 1.39-0.00559 2.78-0.0158 4.17-0.0935 14.5 0.913 30.5 11.4 41.6 8.79 7.55 19.1 8.35 30.3 8.12 1.12-0.011 2.24-0.0219 3.39-0.0332 9.25-0.12 18.5-0.497 27.7-0.998 0.783-0.0361 1.57-0.0722 2.37-0.109 2.05-0.101 4.09-0.244 6.14-0.391 3.07 0.281 3.07 0.281 4.96 1.83 4.35 9.63 2.87 27.2 0.441 37.2-2.51 4.21-6.52 5.02-11.1 6.18-1.34 0.258-2.67 0.504-4.02 0.738-0.704 0.128-1.41 0.256-2.13 0.388-4.64 0.797-9.09 1.19-13.8 0.932-2.44-0.0733-2.44-0.0733-5.36 0.504-5.26 0.65-10.4 0.423-15.6 0.176-1.07-0.0485-2.14-0.097-3.25-0.147-14.3-0.718-27.2-3.23-40.1-9.54-0.718-0.347-1.44-0.694-2.18-1.05-9.48-4.9-18.7-12.2-24.8-20.9v-2h-2c-8.17-14-16.1-31.4-15-48.1 0.156-2.14 0.156-2.14-0.957-4.92-0.0926-1.68-0.128-3.37-0.129-5.06-0.00315-1.03-0.0063-2.06-0.00955-3.13 0.00304-1.68 0.00304-1.68 0.00613-3.39-9.57e-4 -1.16-0.00191-2.32-0.0029-3.51-6.82e-4 -2.46 0.00117-4.92 0.00534-7.38 0.00529-3.72 8.45e-5 -7.44-0.00635-11.2-0.0106-28.6 1.25-59.4 21.1-82.4 11.3-11.3 24-18.6 39.1-23.2 0.847-0.259 1.69-0.517 2.57-0.784 10.1-2.96 19.9-3.24 30.4-3.28z" fill="#005D6D"/>
<path transform="translate(1179 659)" d="m0 0c14.9 12.3 22.7 31.9 24.9 50.6 0.419 5.23 0.376 10.5 0.379 15.7 0.0122 1.18 0.0245 2.36 0.0371 3.57 0.00193 1.13 0.00387 2.25 0.00586 3.42 0.00411 1.02 0.00822 2.05 0.0125 3.1-0.243 2.6-0.243 2.6-2.24 5.6-1.85 0.382-1.85 0.382-4.14 0.392-0.868 0.0111-1.74 0.0222-2.63 0.0336-0.954-0.00301-1.91-0.00601-2.89-0.00911-1 0.00859-2.01 0.0172-3.04 0.026-3.33 0.0252-6.66 0.0294-9.98 0.034-2.3 0.0143-4.61 0.0301-6.91 0.0472-6.07 0.042-12.1 0.0669-18.2 0.0875-9.73 0.0358-19.5 0.0966-29.2 0.158-3.41 0.0192-6.82 0.0308-10.2 0.0414-2.08 0.0102-4.15 0.0206-6.23 0.0311-1.43 0.00156-1.43 0.00156-2.9 0.00316-1.3 0.00818-1.3 0.00818-2.62 0.0165-0.756 0.00256-1.51 0.00511-2.29 0.00775-1.76-0.056-1.76-0.056-2.73 1.13-0.24 14.5 1.97 29.1 12 40.2 9.67 8.93 20.4 11 33.3 11 1.2-1.21e-4 1.2-1.21e-4 2.43-2.44e-4 13.5-0.121 27.1-1.45 40.5-2.65 1.45-0.117 2.9-0.235 4.35-0.352 1.22-0.11 2.44-0.219 3.69-0.332 0.906 0.0477 1.81 0.0954 2.75 0.145 2.42 3.63 2.26 6.31 2.19 10.5-9.67e-4 1.02-9.67e-4 1.02-0.00195 2.05-0.0273 3.08-0.205 5.51-1.19 8.45-2.7 0.845-5.23 1.47-8 2-0.71 0.143-1.42 0.287-2.15 0.435-12.9 2.42-25.9 2.92-39 3.04-1.77 0.0165-3.55 0.0411-5.32 0.0743-22 0.368-40.1-4.7-56.4-20.2-15.1-16.4-17.8-39.7-17.6-61 0.0161-2.43 1.3e-5 -4.85-0.019-7.28-0.0309-23.5 5.52-47.7 22.4-65.1 23.7-21 60.8-22.7 86.9-5.04z" fill="#37B549"/>
<path transform="translate(593 645)" d="m0 0c0.81-0.00387 1.62-0.00773 2.46-0.0117 5.98 0.00996 5.98 0.00996 8.23 1.14 1.49 0.0283 2.99 0.00635 4.48-0.043 5.46-0.0501 10.6 0.675 15.9 1.73 0.875 0.149 1.75 0.298 2.65 0.451 0.844 0.164 1.69 0.329 2.56 0.498 1.13 0.212 1.13 0.212 2.28 0.428 3.13 1.37 4.35 3.03 6.13 5.93 0.518 3.37 0.518 3.37 0.531 7.16 0.00574 1.01 0.00574 1.01 0.0116 2.04 0.00271 1.42-0.00459 2.83-0.0214 4.25-0.0215 2.17-1.39e-4 4.33 0.0254 6.5-0.00264 1.38-0.00776 2.76-0.0156 4.14-0.00451 1.25-0.00902 2.5-0.0137 3.79-0.518 3.11-0.518 3.11-2.4 5.02-2.62 1.35-4.37 1.42-7.31 1.34-1.32-0.0232-1.32-0.0232-2.67-0.0469-2.44-0.157-4.81-0.397-7.23-0.695-5.78-0.661-11.5-0.806-17.4-0.883-1.07-0.0374-2.14-0.0748-3.24-0.113-7.41-0.0814-13.2 1.09-19.3 5.49-4.61 5.53-7.13 11.7-7.59 18.9-0.0732 1.14-0.146 2.29-0.222 3.46-0.327 6.22-0.599 12.4-0.817 18.7-0.0516 1.28-0.103 2.57-0.156 3.89-0.0438 1.23-0.0877 2.47-0.133 3.74-0.0408 1.11-0.0815 2.21-0.124 3.35 0.0352 2.83 0.405 5.27 1.04 8.02 0.118 1.56 0.222 3.12 0.312 4.69 0.672 6.82 2.34 13.7 7.75 18.3 7.72 5.26 14.7 5.19 23.8 5.19 0.907 0.00209 1.81 0.00419 2.75 0.00635 6.97-0.045 13.8-0.619 20.7-1.66 2.84-0.398 5.25-0.641 8.06 0.0344 3.12 2.74 3.56 6.73 3.95 10.7 0.0905 3.78 0.148 7.56 0.178 11.3 0.0415 1.34 0.0831 2.67 0.125 4.01 0.0784 9.65 0.0784 9.65-3.41 13.2-3.02 1.07-5.78 1.69-8.99 1.87-2.43 0.235-2.43 0.235-5.47 1.25-3.96 1.08-7.73 1.51-11.8 1.71-0.763 0.0391-1.53 0.0781-2.31 0.118-6.43 0.265-12.8 0.144-19.3-0.118-0.911-0.0346-1.82-0.0691-2.76-0.105-16.2-0.816-30.4-7.11-42.6-17.6-0.739-0.603-1.48-1.21-2.24-1.83-14.5-12.9-18.5-33.6-19.6-52.1-1.31-29.9-1.9-62.3 18.9-86.1 14.3-15.4 33.8-21.2 54.3-21.1z" fill="#005D6D"/>
<path transform="translate(1537 623)" d="m0 0c1.13-0.00129 2.25-0.00258 3.41-0.00391 2.96 0.566 2.96 0.566 4.82 2.02 1.73 3.85 1.72 7.61 1.83 11.8 0.0342 0.84 0.0683 1.68 0.104 2.55 0.0822 2.07 0.147 4.14 0.209 6.2 1.36 0.121 1.36 0.121 2.75 0.244 3.42 0.306 6.84 0.616 10.3 0.928 1.47 0.133 2.94 0.265 4.41 0.396 7.14 0.633 14.3 1.3 21.4 2.28 0.916 0.125 1.83 0.249 2.78 0.377 3.05 0.969 4.41 2.32 6.43 4.77 1.03 3.09 1.13 5.27 1.12 8.5 0.00387 1.44 0.00387 1.44 0.00781 2.91-0.133 2.59-0.133 2.59-1.13 5.59-0.792-0.0111-1.58-0.0222-2.4-0.0336-7.5-0.101-15-0.177-22.5-0.225-3.86-0.026-7.71-0.0612-11.6-0.118-3.73-0.0547-7.46-0.0843-11.2-0.0972-1.42-0.00917-2.83-0.0271-4.25-0.0543-8.59-0.158-16 0.136-23.1 5.53-2.66 3.5-3.76 6.71-4.56 11 1.6 8.56 7.77 13.2 14.6 18 3.72 2.35 7.5 4.59 11.3 6.8 3 1.74 5.98 3.5 8.97 5.25 0.585 0.343 1.17 0.686 1.77 1.04 17.8 10.4 34.2 20.5 44.6 38.8 1.17 2.2 1.17 2.2 3.33 3.07 0.0869 4.44 0.14 8.87 0.188 13.3 0.0251 1.26 0.0503 2.53 0.0762 3.83 0.00967 1.21 0.0193 2.42 0.0293 3.66 0.0157 1.12 0.0314 2.23 0.0476 3.38-0.382 3.16-0.915 3.89-3.34 5.82-1.02 1.83-1.02 1.83-1.88 3.81-5.26 10.8-14.3 16.1-25.3 20.2-7.46 2.01-15.2 2.49-22.8 3.04-0.0376 0.939-0.0376 0.939-0.0759 1.9-0.116 2.83-0.239 5.65-0.362 8.48-0.0393 0.985-0.0786 1.97-0.119 2.98-0.0628 1.41-0.0628 1.41-0.127 2.85-0.055 1.3-0.055 1.3-0.111 2.63-0.205 2.15-0.205 2.15-1.21 4.15-2.77 0.0809-5.54 0.14-8.31 0.188-0.786 0.0251-1.57 0.0503-2.38 0.0762-1.14 0.0145-1.14 0.0145-2.29 0.0293-1.04 0.0236-1.04 0.0236-2.11 0.0476-2.56-0.458-3.39-1.25-4.9-3.34-0.432-2.18-0.432-2.18-0.512-4.67-0.0354-0.893-0.0709-1.79-0.107-2.71-0.0338-1.39-0.0338-1.39-0.0684-2.81-0.0342-0.94-0.0683-1.88-0.104-2.85-0.0825-2.32-0.152-4.64-0.209-6.96-0.806-0.095-1.61-0.19-2.44-0.288-3.69-0.446-7.37-0.923-11.1-1.4-1.27-0.149-2.54-0.298-3.84-0.451-14-1.86-14-1.86-18.7-6.86-0.852-2.97-0.852-2.97-0.625-6.06 0.049-1.02 0.098-2.04 0.148-3.1 0.455-2.71 0.998-4.54 2.48-6.84 7.39-3.69 20-0.695 28.1 0 8.36 0.664 16.7 1.21 25.1 1.25 0.774 0.00902 1.55 0.018 2.34 0.0273 8.28-0.0436 15.7-1.48 22.5-6.28 3.7-4.96 3.68-9.4 3.53-15.4-1.01-6.77-4.56-11-9.62-15.4-7.2-5.31-15.3-9.59-23-14.1-12.5-7.25-25-14.6-35.9-24.1-0.719-0.601-1.44-1.2-2.18-1.82-7.57-6.82-12-16.3-13.1-26.4-0.352-10.8 3.08-21.6 10.2-29.8 7.26-7.12 17-10.8 27-12-0.0262-0.58-0.0524-1.16-0.0793-1.76-0.104-2.64-0.169-5.29-0.233-7.93-0.0419-0.912-0.0838-1.82-0.127-2.76-0.082-4.51-0.038-6.84 2.54-10.7 3.46-2.26 5.42-2.53 9.52-2.45z" fill="#37B549"/>
<path transform="translate(922,676)" d="m0 0c10 9.08 13.8 21.9 15 35 0.155 3.43 0.187 6.85 0.203 10.3 0.0057 0.972 0.0114 1.94 0.0173 2.94 0.00941 2.05 0.016 4.1 0.0198 6.15 0.00965 3.09 0.0407 6.17 0.0723 9.25 0.0884 16.4 0.153 34.4-11.6 47.2-10.4 9.54-24.5 8.65-37.8 8.12-3.96-0.232-7.92-0.536-11.9-0.875-0.957-0.0784-1.91-0.157-2.9-0.238-1.34-0.126-1.34-0.126-2.72-0.255-0.798-0.0733-1.6-0.147-2.42-0.222-2.09-0.411-2.09-0.411-5.09-2.41-0.38-2.05-0.38-2.05-0.388-4.62-0.0099-0.974-0.0198-1.95-0.03-2.95 0.0045-1.07 9e-3 -2.15 0.0136-3.25-0.00686-1.13-0.0137-2.25-0.0208-3.41-0.0184-3.74-0.0144-7.48-0.00874-11.2-0.00456-2.59-0.00986-5.18-0.0159-7.77-0.00895-5.44-0.00672-10.9 0.00343-16.3 0.0115-6.29-0.00259-12.6-0.0294-18.9-0.0248-6.04-0.0273-12.1-0.0209-18.1 1.54e-4 -2.57-0.00594-5.15-0.0183-7.72-0.0148-3.59-0.0043-7.19 0.0129-10.8-0.00967-1.07-0.0193-2.14-0.0293-3.24 0.00983-0.977 0.0197-1.95 0.0298-2.96 2.09e-4 -0.85 4.19e-4 -1.7 6.34e-4 -2.58 0.501-2.18 0.501-2.18 2.41-3.94 2.24-1.32 3.7-1.72 6.26-1.97 1.2-0.121 1.2-0.121 2.43-0.245 0.854-0.0699 1.71-0.14 2.59-0.212 0.885-0.079 1.77-0.158 2.68-0.239 31.5-2.6 31.5-2.6 43.1 5.43z" fill="#FBFDFD"/>
<path transform="translate(1432 678)" d="m0 0c9.86 8.71 13.8 21.2 15.1 33.9 0.31 6.06 0.288 12.1 0.261 18.2-0.0107 2.8-5.42e-5 5.61 0.0127 8.41 0.0138 17-0.618 34.6-13.3 47.4-10.4 8.73-22 8.86-35 8-9.58-1.17-17.7-5.82-23.9-13.3-13-19.9-11.8-54-7.3-76.7 3.03-11.3 7.65-21.5 17.9-27.8 14.5-7.87 32.5-7.82 46.1 1.93z" fill="#FBFDFD"/>
<path transform="translate(862 222)" d="m0 0c10.5 9.14 19.4 20.9 20.6 35.2 0.0787 2.39 0.0847 4.77 0.0615 7.16 0.0116 1.19 0.0116 1.19 0.0234 2.41-0.0313 9.61-2.15 17-7.27 25.2-0.382 0.619-0.763 1.24-1.16 1.88-6.52 9.87-17.5 17.6-28.9 20.6-16.6 3.01-30.4 1.14-44.6-8.57-11.7-8.37-18.6-18.9-21.5-33-2.42-14.7 2.6-29.3 10.9-41.4 17.7-21.1 49.6-26.7 71.8-9.46z" fill="#005D6D"/>
<path transform="translate(1305 648)" d="m0 0c1.28 0.105 1.28 0.105 2.59 0.212 5.97 0.579 12 1.51 17.5 3.98 2.5 3.75 2.3 6.73 2.25 11.1 0.0116 1.1 0.0116 1.1 0.0234 2.22-0.0201 5.46-0.0201 5.46-2.27 7.72-2.03 0.135-2.03 0.135-4.57-0.0234-0.949-0.052-1.9-0.104-2.87-0.157-1.03-0.0641-2.06-0.128-3.12-0.194-2.18-0.109-4.36-0.214-6.55-0.316-1.13-0.053-2.26-0.106-3.43-0.161-5.59-0.239-11.2-0.387-16.8-0.46-1.01-0.0295-2.01-0.059-3.05-0.0894-9.61-0.0782-19.6 2.5-26.6 9.4-9.58 11.2-11.1 25-11.2 39.2-0.00855 1.61-0.00855 1.61-0.0173 3.25-0.00942 2.26-0.016 4.52-0.0198 6.79-0.00968 3.43-0.0407 6.85-0.0723 10.3-0.00653 2.21-0.0118 4.42-0.0156 6.62-0.0123 1.01-0.0247 2.02-0.0374 3.06 0.0355 11.6 2.75 23.2 9.37 32.8 9.03 8.66 19 10.5 31.1 10.2 1.12-0.00806 2.25-0.0161 3.4-0.0244 5.74-0.0627 11.5-0.256 17.2-0.601 1.57-0.0914 1.57-0.0914 3.18-0.185 2-0.125 3.99-0.269 5.99-0.436 0.895-0.0583 1.79-0.117 2.71-0.177 0.782-0.0628 1.56-0.126 2.37-0.19 2.04 0.362 2.04 0.362 3.79 2.18 1.7 2.97 1.61 5.22 1.56 8.62-0.00387 1.11-0.00773 2.22-0.0117 3.37-0.317 3.37-0.535 5.31-2.3 8.19-2.78 0.909-5.05 1.41-7.92 1.79-0.8 0.117-1.6 0.234-2.42 0.354-8.16 1.1-16.3 1.35-24.5 1.31-2.45-0.00861-4.9 0.0206-7.35 0.052-18.3 0.0812-33.8-5.35-47-18.4-20-21.2-18.5-53.1-17.8-80.1 0.879-21.1 7.02-41.1 22.2-56.4 17.9-16.4 42-16.8 64.7-14.8z" fill="#37B549"/>
<path transform="translate(1040 647)" d="m0 0c2.47-0.0768 4.94-0.127 7.42-0.167 0.772-0.0215 1.54-0.043 2.34-0.0652 5.37-0.0318 5.37-0.0318 7.56 1.55 1.66 2.28 1.65 3.6 1.62 6.4-0.00516 0.888-0.0103 1.78-0.0156 2.69-0.0206 0.924-0.0412 1.85-0.0625 2.8-0.00516 0.932-0.0103 1.86-0.0156 2.82-0.0803 6.9-0.0803 6.9-1.23 8.05-2.73 0.207-5.43 0.355-8.16 0.465-1.7 0.0786-3.39 0.157-5.09 0.236-2.68 0.119-5.36 0.236-8.04 0.348-2.58 0.11-5.17 0.231-7.75 0.353-1.19 0.0454-1.19 0.0454-2.4 0.0918-7.84 0.19-7.84 0.19-14.6 3.51-0.102 1.76-0.134 3.53-0.138 5.3-0.00545 1.15-0.0109 2.3-0.0165 3.48-0.00156 1.91-0.00156 1.91-0.00316 3.86-0.00467 1.35-0.00981 2.69-0.0154 4.04-0.0113 2.9-0.0197 5.81-0.0261 8.71-0.0107 4.59-0.0309 9.18-0.0531 13.8-0.062 13-0.116 26.1-0.149 39.1-0.0183 7.2-0.0472 14.4-0.088 21.6-0.0211 3.81-0.0365 7.63-0.0388 11.4-0.00214 3.59-0.018 7.17-0.0444 10.8-0.0107 1.95-0.00643 3.89-0.00182 5.84-0.0111 1.16-0.0222 2.31-0.0336 3.5-0.00331 1.01-0.00662 2.01-0.01 3.05-0.441 2.89-1.06 3.79-3.38 5.51-1.91 0.388-1.91 0.388-4.05 0.398-0.78 0.00387-1.56 0.00773-2.36 0.0117-0.811-0.0116-1.62-0.0232-2.46-0.0352-0.803 0.0116-1.61 0.0232-2.43 0.0352-5.16-0.0255-8.87-0.588-12.7-4.41-0.246-2.92-0.422-5.81-0.55-8.74-0.042-0.932-0.0839-1.86-0.127-2.82-0.525-12.9-0.508-25.7-0.526-38.6-0.00275-1.36-0.0056-2.73-0.00857-4.09-0.0136-6.39-0.0233-12.8-0.0272-19.2-0.00451-7.33-0.0222-14.7-0.051-22-0.0216-5.71-0.0317-11.4-0.033-17.1-0.00104-3.4-0.00686-6.79-0.0248-10.2-0.017-3.77-0.0152-7.54-0.00869-11.3-0.00921-1.11-0.0184-2.22-0.0279-3.37 0.0322-5.97 0.431-10.3 3.38-15.6 13-11.7 37.9-11.5 54.4-12.1z" fill="#37B549"/>
<path transform="translate(441,688)" d="m0 0c7.12 5.66 11.4 14.1 13 23v8c-13.9 0.33-27.7 0.66-42 1 1.49 0.495 1.49 0.495 3 1v2h-2v2c-2.48 0.495-2.48 0.495-5 1v2h5v2c-2.48 0.495-2.48 0.495-5 1v2h6v2c0.804 0.247 1.61 0.495 2.44 0.75 0.846 0.413 1.69 0.825 2.56 1.25 0.33 1.32 0.66 2.64 1 4h14v3h14v-3h6v-2h2v-3c2.69-0.896 4.32-1.13 7.09-1.18 1.18-0.0358 1.18-0.0358 2.38-0.0723 1.64-0.0429 3.29-0.0742 4.93-0.0938 3.67-0.129 5.95-0.22 9.04-2.29 2.54-3.86 3.32-8.04 4.43-12.5 1.12-2.9 1.12-2.9 3.19-4.11 0.959-0.391 0.959-0.391 1.94-0.789 0.495-1.49 0.495-1.49 1-3h6c-0.206-0.784-0.413-1.57-0.625-2.38-0.124-0.866-0.248-1.73-0.375-2.62 0.66-0.66 1.32-1.32 2-2h3c1.3 3.9 1.27 7.68 1.39 11.8 0.0255 0.857 0.051 1.71 0.0773 2.6 0.052 1.81 0.101 3.62 0.148 5.43 0.0748 2.78 0.165 5.55 0.257 8.33 0.0485 1.76 0.0961 3.51 0.143 5.27 0.0291 0.833 0.0581 1.67 0.0881 2.53 0.0447 2.03-0.0182 4.07-0.0998 6.1-5.4 5.4-17 4-24.3 4-4.91-0.0699-9.82-0.239-14.7-0.411-15.4-0.527-30.7-0.653-46-0.216-0.808 0.0215-1.62 0.043-2.45 0.0652-7.84-0.525-7.84-0.525-14.5 1.56-0.0715 1.35-0.084 2.71-0.0625 4.06 0.0206 1.3 0.0412 2.6 0.0625 3.94-1.98 0.495-1.98 0.495-4 1-0.217-1.7-0.217-1.7-0.438-3.44-0.174-3.37-0.174-3.37-1.56-4.56-0.0408-2-0.0425-4 0-6-0.66-0.33-1.32-0.66-2-1 1-1 1-1 3.56-1.06 0.804 0.0206 1.61 0.0412 2.44 0.0625-0.66-1.65-1.32-3.3-2-5h2c-0.66-0.99-1.32-1.98-2-3-0.195-2.92-0.195-2.92-0.125-6.19 0.018-1.09 0.0361-2.17 0.0547-3.29 0.0232-0.831 0.0464-1.66 0.0703-2.52-0.66-0.33-1.32-0.66-2-1h5v-2h-2c0.33-0.99 0.66-1.98 1-3 0.33 0.33 0.66 0.66 1 1-0.0412-1.15-0.0825-2.31-0.125-3.5 0.0463-8.8 3.04-17.5 8.66-24.4 8.96-8.52 22.6-9.39 33.5-4.14z" fill="#005E6D"/>
<path transform="translate(1164 679)" d="m0 0c7.24 6.43 10.6 16 12.5 25.2 0.227 1.01 0.454 2.02 0.688 3.06 0.456 4.29 0.312 8.62 0.312 12.9h-79c-2.81-11.2 2.13-23 7.53-32.8 5.36-8.46 13.3-13.5 23-15.9 12.9-1.4 24.2-0.207 34.9 7.41z" fill="#FBFDFD"/>
<path transform="translate(441,688)" d="m0 0c7.12 5.66 11.4 14.1 13 23 0.0622 2.67 0.0209 5.33 0 8-7.67 0.0253-15.3 0.0428-23 0.0549-2.61 0.00504-5.22 0.0119-7.84 0.0205-3.75 0.0121-7.49 0.0178-11.2 0.0222-1.18 0.00516-2.35 0.0103-3.56 0.0156-1.08 7.55e-5 -2.16 1.51e-4 -3.28 2.29e-4 -0.957 0.00222-1.91 0.00444-2.9 0.00673-2.17-0.12-2.17-0.12-3.17-1.12-0.672-9.19 2.7-18.8 8.53-25.9 8.96-8.52 22.6-9.39 33.5-4.14z" fill="#FBFDFD"/>
<path transform="translate(1287 824)" d="m0 0c0.816-0.0122 1.63-0.0245 2.47-0.0371 1.19-0.0029 1.19-0.0029 2.39-0.00586 0.72-0.00411 1.44-0.00822 2.18-0.0125 2.38 0.279 4 1.07 6.07 2.24 0.288 2.98 0.411 4.47-1.47 6.89-1.01 0.891-1.01 0.891-2.03 1.8-4.1 3.82-7.46 7.94-10.8 12.4-0.549 0.629-1.1 1.26-1.66 1.91h-2c-0.21 0.527-0.42 1.05-0.637 1.6-1.93 3.39-4.5 6.01-7.18 8.84-0.521 0.56-1.04 1.12-1.58 1.7-3.14 3.36-6.34 6.63-9.61 9.87-0.33 0.33-0.66 0.66-1 1-1.56 0.0869-3.13 0.107-4.69 0.0977-0.944-0.00322-1.89-0.00645-2.86-0.00977-0.993-0.00838-1.99-0.0168-3.01-0.0254-0.997-0.00451-1.99-0.00902-3.02-0.0137-2.47-0.0118-4.94-0.0283-7.42-0.0488-0.495-1.49-0.495-1.49-1-3 1.16-2.07 1.16-2.07 3.06-4.56 0.735-0.971 1.47-1.94 2.23-2.94 0.903-1.17 1.81-2.33 2.71-3.5 1.11-1.45 2.22-2.89 3.34-4.34 3.53-4.57 7.09-9.12 10.7-13.7 0.708-0.901 0.708-0.901 1.43-1.82 1.2-1.52 2.42-3.04 3.63-4.56 0.651-0.812 1.3-1.62 1.97-2.46 5.68-6.26 9.62-7.35 17.8-7.35z" fill="#37B549"/>
</svg>
